<svg width="254" height="291" viewBox="0 0 254 291" fill="none" xmlns="http://www.w3.org/2000/svg">
<path d="M100.367 3.26246C110.088 0.973687 119.731 -0.329764 129.517 0.0723203C155.861 1.15472 179.296 9.96531 199.449 27.0554C218.676 43.3605 231.394 63.8016 236.91 88.4246C243.334 117.104 239.811 144.538 225.236 170.268C209.108 198.739 184.868 216.909 153.38 224.992C125.035 232.267 97.8479 228.128 72.1924 214.153C49.8399 201.977 33.5626 184.068 23.0939 160.951C15.2961 143.731 11.8679 125.614 13.4959 106.714C17.0216 65.7857 36.7822 35.0406 72.1207 14.3058C80.8481 9.18506 90.3147 5.69528 100.367 3.26246ZM62.6591 69.3712C37.3101 104.498 45.6005 153.748 81.4734 179.416C116.701 204.622 164.275 196.282 189.561 161.7C215.882 125.703 207.938 76.7977 172.145 51.2518C137.03 26.1902 87.9329 34.2053 62.6591 69.3712Z" fill="#FD790A"/>
<path d="M128.174 290.243C103.21 290.364 79.4205 285.636 56.615 276.209C37.6767 268.381 20.5679 257.522 5.22516 243.923C-1.31668 238.125 -1.7743 227.039 4.18273 220.703C10.1321 214.375 20.3494 214.394 26.8938 220.365C38.7394 231.172 52.1516 239.612 66.8339 246.07C78.6285 251.258 90.9149 254.842 103.598 256.813C113.709 258.384 123.92 258.704 134.209 258.222C149.084 257.524 163.406 254.495 177.341 249.508C195.584 242.98 212.031 233.37 226.288 220.159C232.611 214.3 243.312 214.497 248.89 220.618C254.994 227.317 254.301 238.252 247.48 244.198C226.832 262.196 203.431 275.179 177.148 282.931C164.653 286.617 151.897 288.847 138.903 289.813C135.409 290.073 131.921 290.216 128.174 290.243Z" fill="#FD790A"/>
<path d="M103.059 107.659C107.218 97.1666 115.041 91.8035 125.878 91.2146C137.739 90.5702 148.653 99.7407 150.806 111.54C152.619 121.475 148.073 131.812 139.532 137.176C131.119 142.461 119.94 142.025 111.781 136.096C103.643 130.182 99.9327 119.882 102.387 110.003C102.567 109.278 102.787 108.563 103.059 107.659Z" fill="#0C0C0C"/>
</svg>
