<svg width="95" height="44" viewBox="0 0 95 44" fill="none" xmlns="http://www.w3.org/2000/svg">
<path d="M2.29268 26.0956C-0.82686 21.7723 -0.751167 16.08 2.44772 12.0605C5.40496 8.34454 11.126 7.2893 14.9757 9.74675C15.5547 10.1164 16.0662 10.5678 16.5289 11.0622C16.593 11.0083 16.6245 10.9944 16.6247 10.98C16.6534 8.92636 17.926 8.50657 20.038 8.91803C20.8135 9.0691 21.1659 9.71183 21.1664 10.678C21.1692 16.3121 21.1669 21.9463 21.171 27.5804C21.1723 29.3495 21.2507 31.1219 20.695 32.8426C19.5247 36.4662 16.9292 38.466 13.2985 39.1594C10.287 39.7345 7.36199 39.3979 4.67319 37.7958C4.16872 37.4952 3.70458 37.1216 3.24435 36.7535C2.31947 36.0139 2.17883 34.91 2.86519 33.9512C3.56035 32.9801 4.74651 32.7209 5.71078 33.4158C6.82636 34.2198 8.00099 34.8685 9.37002 35.078C10.6436 35.2729 11.9179 35.2883 13.1656 34.8736C15.2741 34.1729 16.3544 32.6284 16.6062 30.5074C16.7295 29.4678 16.6275 28.4016 16.6275 27.2005C14.4422 29.5475 11.7881 30.3025 8.80081 29.894C6.15025 29.5316 3.98875 28.2407 2.29268 26.0956ZM5.20233 21.6456C5.29339 21.8737 5.3744 22.1064 5.47702 22.3292C7.19905 26.0679 11.9518 26.8958 14.8386 23.9616C17.1474 21.6148 17.3602 17.4599 15.3079 14.7964C12.8731 11.6364 8.10154 11.827 5.93647 15.1855C4.65741 17.1696 4.41005 19.295 5.20233 21.6456Z" fill="#0C0C0C"/>
<path d="M91.3269 27.2481C86.9601 31.5143 79.7343 31.5573 75.3628 27.1928C70.7469 22.5843 71.1899 14.9949 76.2706 10.8918C82.8074 5.613 92.7197 8.92773 94.3621 17.399C95.0924 21.1658 93.9769 24.4321 91.3269 27.2481ZM89.9094 16.4658C88.4843 13.6315 86.19 12.2505 83.0119 12.3471C79.4023 12.4569 76.3166 15.4883 76.1445 19.0936C75.9213 23.7697 80.4906 27.5045 85.0317 26.3579C89.4927 25.2314 91.6828 20.8742 89.9094 16.4658Z" fill="#FD7A0C"/>
<path d="M28.0438 38.3332C27.0561 37.5723 26.8162 36.5282 27.3907 35.666C27.9516 34.8244 29.0143 34.6138 30.0034 35.1999C33.9947 37.5655 38.3265 38.9899 42.8826 39.6931C46.7626 40.2921 50.6645 40.2699 54.5755 39.7934C59.8406 39.1519 64.7976 37.5681 69.5198 35.1996C70.3328 34.7919 71.1111 34.3151 71.9062 33.8716C72.9329 33.2989 73.87 33.4906 74.4126 34.3827C74.9481 35.2629 74.7186 36.3787 73.7997 36.9732C72.394 37.8827 70.9215 38.6794 69.4044 39.3923C64.5993 41.6501 59.5644 43.0907 54.2853 43.6892C47.3467 44.4758 40.5835 43.8011 34.0362 41.3027C31.962 40.5112 29.9724 39.5426 28.0438 38.3332Z" fill="#FD790A"/>
<path d="M62.5069 16.4544C62.5066 18.545 62.5036 20.5617 62.509 22.5784C62.5101 22.996 62.5029 23.4197 62.5678 23.8298C62.7709 25.114 63.7614 25.871 65.0978 25.7878C65.6398 25.7541 66.161 25.6119 66.687 25.4781C67.7001 25.2203 68.3547 25.599 68.6949 26.5812C69.2679 28.2358 68.8244 29.1582 67.1558 29.6747C65.3213 30.2426 63.4725 30.3274 61.6633 29.5895C59.3013 28.6262 58.2294 26.6939 58.0346 24.2894C57.7605 20.9049 57.9671 17.5058 57.9257 14.1133C57.9116 12.9562 57.9237 12.9561 56.7407 12.9536C56.716 12.9536 56.6914 12.9536 56.6668 12.9535C54.362 12.9494 53.7791 12.2472 54.1844 9.96304C54.3047 9.2853 54.8643 8.80722 55.6623 8.75244C56.177 8.71711 56.6969 8.71435 57.2121 8.74131C57.7231 8.76804 57.9234 8.55771 57.9171 8.0557C57.9039 6.99837 57.9094 5.9406 57.9231 4.88321C57.9335 4.07858 57.9757 3.21623 58.8631 2.89027C59.8491 2.52811 60.9037 2.46068 61.8443 3.05349C62.4153 3.41333 62.4976 4.06613 62.5027 4.69749C62.5117 5.80415 62.5259 6.9113 62.5019 8.01747C62.4902 8.55908 62.691 8.75835 63.2363 8.74358C64.3185 8.71426 65.4023 8.72657 66.4852 8.7404C67.8518 8.75785 68.4235 9.39398 68.4135 10.8558C68.4029 12.4042 67.9111 12.9475 66.5046 12.9537C65.4215 12.9585 64.3377 12.9804 63.2557 12.9463C62.6651 12.9277 62.4767 13.1567 62.4985 13.7248C62.5325 14.6089 62.5072 15.4952 62.5069 16.4544Z" fill="#0C0C0C"/>
<path d="M37.042 10.0391C37.2617 9.12742 37.8649 8.79661 38.6784 8.7448C38.752 8.74011 38.8261 8.74287 38.8999 8.74165C40.8739 8.70902 40.8736 8.70901 40.8736 6.76665C40.8736 5.9797 40.8567 5.19218 40.8803 4.40591C40.9112 3.38077 41.5179 2.75775 42.5356 2.6895C42.9276 2.66321 43.3241 2.66514 43.7164 2.68877C44.7836 2.75306 45.387 3.37851 45.3984 4.43996C45.4111 5.62028 45.4264 6.80152 45.3925 7.98098C45.3757 8.5685 45.599 8.76156 46.1678 8.74619C47.2254 8.71762 48.2845 8.72788 49.3426 8.74429C50.6331 8.76429 51.2134 9.38617 51.1867 10.683C51.1821 10.9042 51.1861 11.1256 51.1822 11.3469C51.1654 12.315 50.6069 12.9166 49.6311 12.9412C48.4504 12.9709 47.2682 12.9671 46.0871 12.9481C45.5764 12.94 45.3944 13.1396 45.3966 13.6455C45.4104 16.8179 45.3795 19.9906 45.4132 23.1627C45.4337 25.0939 46.667 26.0564 48.591 25.7281C48.881 25.6786 49.169 25.6109 49.4527 25.5326C50.5905 25.2184 51.2259 25.5503 51.6207 26.675C52.1837 28.2784 51.8206 29.0819 50.2196 29.6299C48.6751 30.1585 47.0899 30.2672 45.4953 29.8794C43.0548 29.2859 41.4127 27.3713 41.0103 24.7713C40.8205 23.545 40.8877 22.3185 40.8797 21.0917C40.8637 18.6325 40.8596 16.1731 40.8824 13.714C40.8877 13.1418 40.7112 12.9024 40.1231 12.9468C39.6337 12.9838 39.1389 12.9617 38.6469 12.9485C37.5735 12.9197 37.0352 12.3652 37.0238 11.2837C37.0197 10.8904 37.0306 10.4969 37.042 10.0391Z" fill="#0C0C0C"/>
<path d="M28.1413 29.8794C27.4126 29.5219 27.1417 28.9432 27.1409 28.2294C27.1349 22.3261 27.1299 16.4228 27.1403 10.5195C27.1423 9.41671 27.7921 8.78725 28.8858 8.7455C29.2299 8.73237 29.5754 8.73132 29.9195 8.74501C31.0257 8.78902 31.6496 9.41466 31.651 10.5181C31.6587 16.446 31.6605 22.3739 31.6564 28.3018C31.6557 29.2627 31.1836 29.8268 30.242 29.9862C29.56 30.1017 28.8702 30.1152 28.1413 29.8794Z" fill="#0C0C0C"/>
<path d="M29.7541 5.34545C28.0488 5.42568 26.8326 4.40979 26.7017 2.86038C26.5901 1.53948 27.6896 0.17092 28.9805 0.023908C30.6407 -0.165169 31.9348 0.781277 32.1821 2.36543C32.3942 3.72414 31.3682 5.00869 29.7541 5.34545Z" fill="#0C0C0C"/>
<path d="M81.1411 20.8133C80.6004 19.7365 80.6756 18.738 81.421 17.8777C82.0996 17.0947 83.0166 16.8396 84.0337 17.091C85.1283 17.3614 85.868 18.2406 85.97 19.34C86.0638 20.351 85.4547 21.3568 84.4637 21.8274C83.4758 22.2966 82.2975 22.0963 81.5393 21.3214C81.4027 21.1818 81.2936 21.0154 81.1411 20.8133Z" fill="#0C0C0C"/>
</svg>
