<svg width="86" height="40" viewBox="0 0 86 40" fill="none" xmlns="http://www.w3.org/2000/svg">
<path d="M2.08425 23.7233C-0.751691 19.793 -0.682879 14.6182 2.2252 10.9641C4.9136 7.58595 10.1145 6.62664 13.6143 8.86068C14.1407 9.1967 14.6057 9.60707 15.0262 10.0565C15.0846 10.0076 15.1131 9.99491 15.1133 9.98185C15.1395 8.11487 16.2963 7.73324 18.2164 8.1073C18.9213 8.24463 19.2417 8.82893 19.2422 9.70728C19.2448 14.8292 19.2426 19.9512 19.2464 25.0731C19.2475 26.6813 19.3188 28.2927 18.8136 29.8569C17.7497 33.1511 15.3902 34.9691 12.0896 35.5994C9.35184 36.1222 6.69272 35.8162 4.24835 34.3598C3.78974 34.0866 3.3678 33.7469 2.94941 33.4123C2.10861 32.7399 1.98075 31.7363 2.60471 30.8647C3.23669 29.9819 4.31501 29.7462 5.19161 30.378C6.20578 31.1089 7.27363 31.6986 8.5182 31.8891C9.67603 32.0663 10.8344 32.0802 11.9687 31.7033C13.8856 31.0663 14.8677 29.6622 15.0965 27.734C15.2087 26.7889 15.1159 25.8196 15.1159 24.7277C13.1293 26.8614 10.7165 27.5477 8.00074 27.1764C5.59114 26.8469 3.62614 25.6734 2.08425 23.7233ZM4.72939 19.6778C4.81218 19.8852 4.88582 20.0967 4.97911 20.2993C6.54459 23.6981 10.8653 24.4508 13.4896 21.7833C15.5885 19.6498 15.782 15.8726 13.9163 13.4512C11.7028 10.5785 7.36504 10.7519 5.39679 13.805C4.23401 15.6087 4.00913 17.5409 4.72939 19.6778Z" fill="#DED1C5"/>
<path d="M83.0245 24.771C79.0546 28.6493 72.4858 28.6885 68.5117 24.7207C64.3154 20.5312 64.7181 13.6317 69.337 9.90168C75.2795 5.10273 84.2907 8.11612 85.7838 15.8172C86.4477 19.2416 85.4336 22.211 83.0245 24.771ZM81.7359 14.9689C80.4404 12.3923 78.3546 11.1368 75.4654 11.2247C72.1839 11.3245 69.3788 14.0802 69.2223 17.3578C69.0194 21.6088 73.1733 25.0041 77.3016 23.9617C81.357 22.9377 83.3481 18.9766 81.7359 14.9689Z" fill="#FD7A0C"/>
<path d="M25.4943 34.8484C24.5963 34.1567 24.3782 33.2074 24.9006 32.4236C25.4105 31.6585 26.3766 31.4671 27.2757 31.9999C30.9042 34.1504 34.8422 35.4453 38.9841 36.0847C42.5114 36.6291 46.0585 36.609 49.614 36.1758C54.4005 35.5927 58.9068 34.1528 63.1998 31.9997C63.9389 31.629 64.6464 31.1955 65.3692 30.7923C66.3025 30.2717 67.1544 30.4459 67.6478 31.257C68.1345 32.0572 67.9259 33.0715 67.0905 33.612C65.8127 34.4388 64.474 35.1631 63.0948 35.8111C58.7265 37.8637 54.1494 39.1734 49.3502 39.7174C43.0424 40.4325 36.894 39.8191 30.9419 37.5479C29.0563 36.8284 27.2475 35.9478 25.4943 34.8484Z" fill="#FD790A"/>
<path d="M56.8245 14.9586C56.8243 16.8591 56.8215 18.6925 56.8264 20.5259C56.8274 20.9054 56.8209 21.2907 56.8798 21.6635C57.0645 22.8309 57.965 23.5191 59.1798 23.4435C59.6725 23.4128 60.1464 23.2835 60.6246 23.1619C61.5455 22.9275 62.1407 23.2718 62.4499 24.1647C62.9709 25.6689 62.5676 26.5074 61.0508 26.977C59.3831 27.4932 57.7023 27.5703 56.0576 26.8996C53.9103 26.0238 52.9359 24.2672 52.7588 22.0813C52.5095 19.0044 52.6974 15.9144 52.6598 12.8303C52.647 11.7784 52.658 11.7783 51.5824 11.776C51.5601 11.776 51.5377 11.776 51.5153 11.7759C49.42 11.7722 48.8901 11.1338 49.2586 9.05731C49.3679 8.44118 49.8766 8.00657 50.6021 7.95677C51.0701 7.92465 51.5427 7.92214 52.0111 7.94664C52.4756 7.97095 52.6576 7.77974 52.652 7.32336C52.64 6.36215 52.6449 5.40054 52.6574 4.43928C52.6668 3.70779 52.7052 2.92385 53.5119 2.62752C54.4083 2.29828 55.367 2.23698 56.2221 2.7759C56.7412 3.10303 56.816 3.69648 56.8207 4.27044C56.8289 5.2765 56.8418 6.283 56.82 7.28861C56.8093 7.78098 56.9919 7.96214 57.4876 7.94871C58.4714 7.92205 59.4567 7.93324 60.4411 7.94581C61.6835 7.96168 62.2032 8.53998 62.1941 9.86895C62.1845 11.2765 61.7374 11.7704 60.4587 11.7761C59.4742 11.7805 58.4888 11.8004 57.5052 11.7694C56.9683 11.7524 56.797 11.9606 56.8168 12.4771C56.8477 13.2808 56.8248 14.0866 56.8245 14.9586Z" fill="#DED1C5"/>
<path d="M33.6746 9.12644C33.8743 8.29765 34.4227 7.99691 35.1623 7.94981C35.2292 7.94555 35.2965 7.94806 35.3636 7.94695C37.1581 7.91729 37.1579 7.91728 37.1579 6.1515C37.1578 5.43608 37.1425 4.72016 37.164 4.00537C37.1921 3.07342 37.7436 2.50704 38.6688 2.445C39.0251 2.4211 39.3856 2.42285 39.7422 2.44434C40.7124 2.50277 41.2609 3.07137 41.2713 4.03632C41.2828 5.10934 41.2968 6.1832 41.266 7.25543C41.2507 7.78954 41.4537 7.96505 41.9708 7.95108C42.9322 7.92511 43.895 7.93444 44.857 7.94935C46.0302 7.96754 46.5577 8.53288 46.5334 9.71184C46.5293 9.91295 46.5329 10.1142 46.5294 10.3153C46.514 11.1955 46.0064 11.7423 45.1192 11.7647C44.0458 11.7917 42.9711 11.7883 41.8974 11.771C41.4332 11.7636 41.2677 11.9451 41.2697 12.405C41.2822 15.289 41.2542 18.1733 41.2848 21.057C41.3034 22.8127 42.4246 23.6877 44.1737 23.3892C44.4373 23.3442 44.6992 23.2826 44.9571 23.2114C45.9915 22.9258 46.5691 23.2276 46.928 24.25C47.4398 25.7076 47.1097 26.4381 45.6543 26.9362C44.2501 27.4168 42.8091 27.5156 41.3594 27.1631C39.1408 26.6236 37.648 24.883 37.2822 22.5194C37.1096 21.4045 37.1707 20.2895 37.1635 19.1743C37.1489 16.9387 37.1452 14.7028 37.1659 12.4673C37.1707 11.9471 37.0102 11.7294 36.4756 11.7698C36.0307 11.8034 35.5809 11.7834 35.1336 11.7714C34.1578 11.7451 33.6684 11.2411 33.6581 10.2579C33.6543 9.90037 33.6642 9.54266 33.6746 9.12644Z" fill="#DED1C5"/>
<path d="M25.5829 27.1631C24.9205 26.8381 24.6742 26.312 24.6735 25.6631C24.668 20.2965 24.6634 14.9298 24.673 9.5632C24.6747 8.56065 25.2654 7.98841 26.2597 7.95045C26.5726 7.93851 26.8867 7.93756 27.1995 7.95001C28.2051 7.99002 28.7723 8.55878 28.7736 9.56189C28.7806 14.9509 28.7822 20.3399 28.7785 25.7289C28.7779 26.6025 28.3486 27.1153 27.4926 27.2602C26.8726 27.3652 26.2456 27.3775 25.5829 27.1631Z" fill="#DED1C5"/>
<path d="M27.0492 4.8595C25.4988 4.93244 24.3932 4.0089 24.2742 2.60034C24.1727 1.39953 25.1723 0.155382 26.3458 0.0217345C27.8552 -0.150154 29.0316 0.710252 29.2564 2.15039C29.4492 3.38558 28.5165 4.55335 27.0492 4.8595Z" fill="#DED1C5"/>
<path d="M73.7646 18.9212C73.273 17.9423 73.3413 17.0346 74.0191 16.2525C74.6359 15.5407 75.4696 15.3088 76.3942 15.5372C77.3893 15.7831 78.0618 16.5823 78.1545 17.5819C78.2398 18.5009 77.686 19.4153 76.7852 19.8431C75.887 20.2696 74.8158 20.0875 74.1265 19.3831C74.0024 19.2562 73.9032 19.1049 73.7646 18.9212Z" fill="#DED1C5"/>
</svg>
